<svg width="16" height="13" viewBox="0 0 16 13" fill="none" xmlns="http://www.w3.org/2000/svg">
<path d="M14.7969 12.2031H0.398438C0.289062 12.2031 0.195312 12.1641 0.117188 12.0859C0.0390625 12.0078 0 11.9115 0 11.7969V3.79688C0 3.6875 0.0390625 3.59375 0.117188 3.51562C0.195312 3.4375 0.289062 3.39844 0.398438 3.39844H14.7969C14.9115 3.39844 15.0078 3.4375 15.0859 3.51562C15.1641 3.59375 15.2031 3.6875 15.2031 3.79688V11.7969C15.2031 11.9115 15.1641 12.0078 15.0859 12.0859C15.0078 12.1641 14.9115 12.2031 14.7969 12.2031ZM0.796875 11.3984H14.3984V4.20312H0.796875V11.3984ZM9.20312 7.39844H6.39844V6.60156H9.20312C9.3125 6.60156 9.40625 6.5625 9.48438 6.48438C9.5625 6.40625 9.60156 6.3125 9.60156 6.20312C9.60156 6.08854 9.5625 5.99219 9.48438 5.91406C9.40625 5.83594 9.3125 5.79688 9.20312 5.79688H8V5.39844C8 5.28906 7.96094 5.19531 7.88281 5.11719C7.80469 5.03906 7.71094 5 7.60156 5C7.49219 5 7.39844 5.03906 7.32031 5.11719C7.24219 5.19531 7.20312 5.28906 7.20312 5.39844V5.79688H6C5.89062 5.79688 5.79688 5.83594 5.71875 5.91406C5.64062 5.99219 5.60156 6.08854 5.60156 6.20312V7.79688C5.60156 7.91146 5.64062 8.00781 5.71875 8.08594C5.79688 8.16406 5.89062 8.20312 6 8.20312H8.79688V9H6C5.89062 9 5.79688 9.03906 5.71875 9.11719C5.64062 9.19531 5.60156 9.28906 5.60156 9.39844C5.60156 9.50781 5.64062 9.60156 5.71875 9.67969C5.79688 9.75781 5.89062 9.79688 6 9.79688H7.20312V10.2031C7.20312 10.3125 7.24219 10.4062 7.32031 10.4844C7.39844 10.5625 7.49219 10.6016 7.60156 10.6016C7.71094 10.6016 7.80469 10.5625 7.88281 10.4844C7.96094 10.4062 8 10.3125 8 10.2031V9.79688H9.20312C9.3125 9.79688 9.40625 9.75781 9.48438 9.67969C9.5625 9.60156 9.60156 9.50781 9.60156 9.39844V7.79688C9.60156 7.6875 9.5625 7.59375 9.48438 7.51562C9.40625 7.4375 9.3125 7.39844 9.20312 7.39844ZM14 2.60156H1.20312C1.08854 2.60156 0.992188 2.5625 0.914062 2.48438C0.835938 2.40625 0.796875 2.3125 0.796875 2.20312C0.796875 2.08854 0.835938 1.99219 0.914062 1.91406C0.992188 1.83594 1.08854 1.79688 1.20312 1.79688H14C14.1094 1.79688 14.2031 1.83594 14.2812 1.91406C14.3594 1.99219 14.3984 2.08854 14.3984 2.20312C14.3984 2.3125 14.3594 2.40625 14.2812 2.48438C14.2031 2.5625 14.1094 2.60156 14 2.60156ZM13.2031 1H2C1.89062 1 1.79688 0.960938 1.71875 0.882812C1.64062 0.804688 1.60156 0.710938 1.60156 0.601562C1.60156 0.492188 1.64062 0.398438 1.71875 0.320312C1.79688 0.242188 1.89062 0.203125 2 0.203125H13.2031C13.3125 0.203125 13.4062 0.242188 13.4844 0.320312C13.5625 0.398438 13.6016 0.492188 13.6016 0.601562C13.6016 0.710938 13.5625 0.804688 13.4844 0.882812C13.4062 0.960938 13.3125 1 13.2031 1Z" fill="#C6C4CB"/>
</svg>
