<svg width="16" height="13" viewBox="0 0 16 13" fill="none" xmlns="http://www.w3.org/2000/svg">
<path d="M15.3125 0.625C15.2578 0.625 15.2031 0.652344 15.1484 0.679688L10.5 2.375L5.79688 0.734375C5.60547 0.679688 5.41406 0.652344 5.22266 0.625C5.05859 0.625 4.86719 0.679688 4.67578 0.734375L0.546875 2.15625C0.21875 2.29297 0 2.62109 0 2.97656V12.4375C0 12.7109 0.191406 12.875 0.410156 12.875C0.464844 12.875 0.519531 12.875 0.574219 12.8477L5.25 11.125L9.95312 12.793C10.1172 12.8477 10.3086 12.875 10.5 12.875C10.6914 12.875 10.8555 12.8477 11.0469 12.793L15.1758 11.3711C15.5039 11.2344 15.75 10.9062 15.75 10.5508V1.08984C15.75 0.816406 15.5312 0.625 15.3125 0.625ZM6.125 2.23828L9.625 3.46875V11.2891L6.125 10.0586V2.23828ZM1.3125 11.207V3.30469L4.8125 2.07422V9.89453H4.78516L1.3125 11.207ZM14.4375 10.2227L10.9375 11.4531V3.63281L14.4375 2.32031V10.2227Z" fill="#C6C4CB"/>
</svg>
