<svg width="20" height="19" viewBox="0 0 20 19" fill="none" xmlns="http://www.w3.org/2000/svg">
<path fill-rule="evenodd" clip-rule="evenodd" d="M11.5236 4.49292L10.7559 1.86004C10.7116 1.70826 10.6413 1.63311 10.5776 1.58844C10.5031 1.53627 10.3977 1.5 10.2759 1.5C10.154 1.5 10.0486 1.53627 9.97413 1.58844C9.91038 1.63311 9.8401 1.70826 9.79584 1.86004L9.02814 4.49292C8.5816 6.02436 7.15601 7.06011 5.56153 7.01155L2.82028 6.92808C2.66226 6.92327 2.56907 6.96688 2.50688 7.01371C2.43426 7.06839 2.3672 7.15741 2.32954 7.27334C2.29187 7.38926 2.29379 7.5007 2.3204 7.58762C2.34319 7.66206 2.39295 7.75212 2.52362 7.84111L4.7904 9.38485C6.1089 10.2828 6.65343 11.9587 6.11453 13.4601L5.18805 16.0414C5.13464 16.1902 5.14732 16.2923 5.17264 16.3659C5.2022 16.4519 5.26615 16.5431 5.36476 16.6148C5.46337 16.6864 5.56995 16.719 5.66084 16.7206C5.73868 16.7219 5.8397 16.7024 5.96472 16.6057L8.13337 14.9269C9.3948 13.9504 11.1569 13.9504 12.4183 14.9269L14.587 16.6057C14.712 16.7024 14.813 16.7219 14.8909 16.7206C14.9818 16.719 15.0883 16.6864 15.1869 16.6148C15.2856 16.5431 15.3495 16.4519 15.3791 16.3659C15.4044 16.2923 15.4171 16.1902 15.3637 16.0414L14.4372 13.4601C13.8983 11.9587 14.4428 10.2828 15.7613 9.38485L18.0281 7.84111C18.1588 7.75212 18.2085 7.66206 18.2313 7.58762C18.2579 7.5007 18.2598 7.38926 18.2222 7.27334C18.1845 7.15741 18.1174 7.06839 18.0448 7.01371C17.9826 6.96688 17.8895 6.92327 17.7314 6.92808L14.9902 7.01155C13.3957 7.06011 11.9701 6.02436 11.5236 4.49292ZM12.1959 1.44015C11.636 -0.48005 8.91571 -0.480049 8.35581 1.44015L7.58811 4.07303C7.33294 4.94814 6.51832 5.53999 5.60719 5.51225L2.86594 5.42877C0.866705 5.36789 0.0260885 7.95505 1.67929 9.08091L3.94607 10.6246C4.6995 11.1377 5.01066 12.0954 4.70271 12.9534L3.77623 15.5346C3.10053 17.4172 5.3013 19.0162 6.88293 17.7918L9.05158 16.113C9.77239 15.555 10.7793 15.555 11.5001 16.113L13.6688 17.7918C15.2504 19.0162 17.4512 17.4172 16.7755 15.5346L15.849 12.9534C15.5411 12.0954 15.8522 11.1377 16.6056 10.6246L18.8724 9.08091C20.5256 7.95505 19.685 5.36789 17.6858 5.42877L14.9445 5.51225C14.0334 5.53999 13.2188 4.94814 12.9636 4.07303L12.1959 1.44015Z" fill="#FBE7D0"/>
</svg>
