<svg width="20" height="19" viewBox="0 0 20 19" fill="none" xmlns="http://www.w3.org/2000/svg">
<path d="M8.45542 1.44015C9.01532 -0.480049 11.7356 -0.48005 12.2955 1.44015L13.0632 4.07303C13.3184 4.94814 14.133 5.53999 15.0441 5.51225L17.7854 5.42877C19.7846 5.36789 20.6252 7.95505 18.972 9.08091L16.7052 10.6246C15.9518 11.1377 15.6407 12.0954 15.9486 12.9534L16.8751 15.5346C17.5508 17.4172 15.35 19.0162 13.7684 17.7918L11.5997 16.113C10.8789 15.555 9.872 15.555 9.15119 16.113L6.98254 17.7918C5.40091 19.0162 3.20014 17.4172 3.87584 15.5346L4.80232 12.9534C5.11027 12.0954 4.79911 11.1377 4.04568 10.6246L1.7789 9.08091C0.125698 7.95505 0.966314 5.36789 2.96555 5.42877L5.7068 5.51225C6.61793 5.53999 7.43255 4.94814 7.68772 4.07303L8.45542 1.44015Z" fill="#FBE7D0"/>
</svg>
