<svg width="14" height="15" viewBox="0 0 14 15" fill="none" xmlns="http://www.w3.org/2000/svg">
<path d="M7 0.96875C3.25391 0.96875 0.21875 4.00391 0.21875 7.75C0.21875 11.4961 3.25391 14.5312 7 14.5312C10.7461 14.5312 13.7812 11.4961 13.7812 7.75C13.7812 4.00391 10.7461 0.96875 7 0.96875ZM7 13.2188C3.96484 13.2188 1.53125 10.7852 1.53125 7.75C1.53125 4.74219 3.96484 2.28125 7 2.28125C10.0078 2.28125 12.4688 4.74219 12.4688 7.75C12.4688 10.7852 10.0078 13.2188 7 13.2188ZM8.66797 10.375C8.83203 10.4844 9.02344 10.457 9.13281 10.293L9.65234 9.60938C9.76172 9.44531 9.73438 9.25391 9.57031 9.14453L7.76562 7.80469V3.92188C7.76562 3.75781 7.60156 3.59375 7.4375 3.59375H6.5625C6.37109 3.59375 6.23438 3.75781 6.23438 3.92188V8.43359C6.23438 8.51562 6.26172 8.625 6.34375 8.67969L8.66797 10.375Z" fill="#C6C4CB"/>
</svg>
